<svg xmlns="http://www.w3.org/2000/svg" xmlns:xlink="http://www.w3.org/1999/xlink" width="300" zoomAndPan="magnify" viewBox="0 0 224.87999 30.000001" height="40" preserveAspectRatio="xMidYMid meet" version="1.2"><defs><clipPath id="e93d423c0a"><path d="M 10 3 L 215 3 L 215 26.574219 L 10 26.574219 Z M 10 3 "/></clipPath></defs><g id="3419d97253"><g clip-rule="nonzero" clip-path="url(#e93d423c0a)"><path style=" stroke:none;fill-rule:nonzero;fill:#e53e3e;fill-opacity:1;" d="M 112.640625 18.273438 C 113.046875 17.664062 113.351562 17.15625 113.554688 16.75 C 115.179688 13.902344 117.621094 11.871094 120.667969 10.652344 C 123.921875 9.332031 127.375 9.023438 130.832031 9.636719 C 131.847656 9.839844 132.761719 9.839844 133.777344 9.230469 C 137.640625 6.585938 142.113281 5.265625 146.6875 4.351562 C 154.613281 2.925781 162.335938 3.84375 169.859375 6.6875 C 172.90625 7.804688 175.855469 9.125 178.800781 10.449219 C 182.765625 12.175781 186.730469 14.003906 190.691406 15.734375 C 193.742188 17.054688 196.890625 18.070312 200.144531 18.679688 C 202.074219 19.085938 204.003906 19.1875 205.9375 18.882812 C 207.96875 18.578125 209.59375 17.765625 210.917969 16.242188 C 212.949219 14.003906 212.441406 10.855469 211.019531 9.226562 C 210.207031 8.210938 209.1875 7.601562 207.867188 7.398438 C 205.9375 7.09375 204.003906 7.195312 202.277344 8.210938 C 201.972656 8.414062 201.667969 8.515625 201.363281 8.617188 C 201.160156 8.617188 200.753906 8.617188 200.652344 8.414062 C 200.550781 8.3125 200.550781 7.90625 200.652344 7.703125 C 200.855469 7.398438 201.058594 7.195312 201.363281 6.890625 C 204.3125 4.25 209.796875 4.554688 212.441406 7.601562 C 214.574219 10.042969 215.691406 14.613281 212.136719 18.273438 C 210 20.40625 207.460938 21.324219 204.515625 21.425781 C 202.683594 21.527344 200.957031 21.222656 199.230469 20.8125 C 195.367188 20 191.707031 18.679688 188.050781 17.054688 C 184.085938 15.328125 180.121094 13.496094 176.160156 11.769531 C 172.601562 10.144531 168.941406 8.617188 165.082031 7.703125 C 156.746094 5.570312 148.617188 5.773438 140.488281 8.617188 C 139.265625 9.023438 138.046875 9.636719 136.929688 10.246094 C 136.625 10.347656 136.421875 10.652344 136.117188 10.855469 C 136.21875 11.058594 136.21875 11.261719 136.320312 11.261719 C 140.082031 13.191406 143.738281 15.53125 147.703125 17.257812 C 148.515625 16.648438 149.226562 16.140625 149.835938 15.632812 C 151.769531 14.105469 153.699219 12.683594 155.933594 11.667969 C 160.304688 9.636719 164.675781 9.535156 169.148438 11.566406 C 170.164062 11.972656 171.078125 12.683594 171.890625 13.394531 C 174.125 15.429688 174.226562 18.375 172.09375 20.507812 C 171.382812 21.222656 170.46875 21.832031 169.554688 22.339844 C 167.925781 23.152344 166.199219 23.558594 164.371094 23.660156 C 160.609375 23.863281 156.949219 23.152344 153.394531 22.136719 C 151.566406 21.628906 149.734375 21.019531 147.703125 20.304688 C 147.195312 20.710938 146.585938 21.121094 145.976562 21.527344 C 144.144531 22.847656 142.214844 24.066406 140.082031 24.980469 C 137.539062 25.996094 134.898438 26.402344 132.152344 25.792969 C 128.394531 24.878906 126.5625 21.933594 127.273438 18.171875 C 127.578125 16.546875 128.191406 15.125 129.105469 13.800781 C 129.410156 13.292969 129.714844 12.785156 130.121094 12.175781 C 129.003906 11.667969 127.984375 11.667969 126.96875 11.667969 C 124.734375 11.769531 122.601562 12.277344 120.566406 13.292969 C 118.128906 14.511719 116.296875 16.242188 115.078125 18.679688 C 114.570312 19.695312 114.164062 20.710938 113.65625 21.628906 C 113.148438 22.542969 112.234375 22.542969 111.726562 21.628906 C 111.320312 20.917969 111.015625 20.101562 110.710938 19.390625 C 108.980469 15.53125 105.933594 13.191406 101.96875 12.175781 C 100.648438 11.871094 99.226562 11.769531 97.902344 11.667969 C 97.089844 11.667969 96.277344 11.871094 95.261719 11.972656 C 95.667969 12.582031 95.871094 13.089844 96.175781 13.496094 C 97.089844 14.917969 97.800781 16.34375 98.105469 17.96875 C 98.816406 21.832031 96.785156 24.878906 93.128906 25.691406 C 90.789062 26.199219 88.65625 25.996094 86.417969 25.285156 C 83.980469 24.472656 81.847656 23.152344 79.710938 21.628906 C 79 21.121094 78.390625 20.710938 77.679688 20.203125 C 76.867188 20.507812 76.15625 20.710938 75.441406 21.019531 C 72.292969 22.136719 69.140625 22.949219 65.789062 23.355469 C 63.144531 23.761719 60.605469 23.761719 57.964844 23.050781 C 56.4375 22.644531 55.117188 22.035156 53.898438 21.019531 C 51.050781 18.578125 51.050781 15.019531 54 12.683594 C 55.929688 11.160156 58.167969 10.347656 60.605469 10.042969 C 63.652344 9.636719 66.601562 10.144531 69.445312 11.464844 C 71.582031 12.480469 73.511719 13.902344 75.339844 15.328125 C 76.054688 15.835938 76.765625 16.445312 77.375 16.851562 C 79.40625 16.242188 85.808594 12.988281 89.164062 10.855469 C 89.164062 10.449219 88.859375 10.246094 88.554688 10.144531 C 85.605469 8.515625 82.355469 7.5 79 6.789062 C 71.277344 5.367188 63.652344 6.078125 56.234375 8.617188 C 51.964844 10.144531 47.800781 12.074219 43.734375 14.003906 C 39.871094 15.734375 35.910156 17.5625 31.945312 18.882812 C 29.203125 19.796875 26.457031 20.609375 23.511719 21.019531 C 21.273438 21.324219 19.140625 21.121094 17.007812 20.40625 C 15.277344 19.796875 13.855469 18.78125 12.636719 17.359375 C 9.179688 13.394531 11.007812 6.382812 16.800781 5.0625 C 19.140625 4.554688 21.476562 4.757812 23.511719 6.179688 C 23.917969 6.484375 24.324219 6.890625 24.628906 7.296875 C 24.730469 7.5 24.730469 7.90625 24.628906 8.007812 C 24.527344 8.210938 24.121094 8.210938 23.917969 8.210938 C 23.613281 8.109375 23.308594 8.007812 23.003906 7.804688 C 21.375 6.890625 19.648438 6.789062 17.820312 6.992188 C 15.683594 7.195312 14.261719 8.3125 13.449219 10.246094 C 12.636719 12.277344 12.941406 14.207031 14.363281 15.835938 C 15.683594 17.359375 17.414062 18.171875 19.34375 18.476562 C 21.273438 18.78125 23.207031 18.578125 25.136719 18.273438 C 29 17.5625 32.757812 16.242188 36.316406 14.613281 C 40.585938 12.785156 44.851562 10.753906 49.121094 8.820312 C 53.492188 6.890625 57.859375 5.164062 62.535156 4.25 C 70.261719 2.621094 77.882812 3.128906 85.300781 5.773438 C 87.335938 6.484375 89.265625 7.296875 90.992188 8.617188 C 92.007812 9.332031 93.027344 9.535156 94.246094 9.332031 C 97.496094 8.617188 100.648438 9.023438 103.796875 10.144531 C 107.152344 11.363281 109.792969 13.496094 111.523438 16.648438 C 112.03125 17.359375 112.234375 17.664062 112.640625 18.273438 Z M 75.136719 18.273438 C 73.207031 16.648438 71.480469 15.328125 69.546875 14.207031 C 66.601562 12.480469 63.449219 11.972656 60.199219 12.480469 C 58.269531 12.785156 56.4375 13.496094 54.914062 14.714844 C 53.289062 16.039062 53.1875 17.867188 54.609375 19.390625 C 55.320312 20.101562 56.234375 20.609375 57.25 21.019531 C 59.183594 21.730469 61.113281 21.933594 63.144531 21.730469 C 66.804688 21.222656 70.464844 20.304688 73.917969 18.882812 C 74.222656 18.679688 74.527344 18.578125 75.136719 18.273438 Z M 150.445312 18.273438 C 150.648438 18.476562 150.851562 18.679688 151.054688 18.78125 C 154.816406 20.304688 158.679688 21.324219 162.640625 21.730469 C 164.675781 21.933594 166.605469 21.527344 168.535156 20.710938 C 169.453125 20.304688 170.367188 19.695312 170.976562 18.882812 C 171.890625 17.664062 171.789062 16.242188 170.773438 15.125 C 170.265625 14.613281 169.65625 14.105469 168.941406 13.800781 C 165.183594 11.972656 161.421875 11.769531 157.5625 13.292969 C 155.019531 14.308594 152.886719 15.9375 150.851562 17.765625 C 150.648438 17.867188 150.648438 18.070312 150.445312 18.273438 Z M 145.058594 19.289062 C 141.808594 17.054688 135.101562 13.496094 133.167969 12.988281 C 131.746094 13.902344 130.933594 15.328125 130.222656 16.75 C 129.816406 17.664062 129.613281 18.679688 129.613281 19.796875 C 129.714844 21.527344 130.527344 22.644531 132.050781 23.253906 C 133.269531 23.761719 134.59375 23.863281 135.914062 23.761719 C 139.367188 23.253906 142.214844 21.527344 145.058594 19.289062 Z M 80.320312 19.1875 C 82.660156 21.425781 86.113281 23.152344 88.859375 23.660156 C 90.179688 23.863281 91.5 23.761719 92.71875 23.355469 C 94.652344 22.746094 95.566406 21.527344 95.566406 19.59375 C 95.566406 17.15625 94.347656 14.714844 92.007812 12.988281 C 90.078125 13.597656 84.386719 16.546875 80.320312 19.1875 Z M 80.320312 19.1875 "/></g><path style=" stroke:none;fill-rule:nonzero;fill:#e53e3e;fill-opacity:1;" d="M 112.539062 12.277344 C 111.015625 12.175781 109.894531 11.058594 109.996094 9.636719 C 109.996094 8.109375 111.320312 6.890625 112.84375 6.992188 C 114.265625 7.09375 115.484375 8.3125 115.484375 9.636719 C 115.382812 11.058594 114.0625 12.277344 112.539062 12.277344 Z M 112.539062 12.277344 "/></g></svg>