<svg xmlns="http://www.w3.org/2000/svg" xmlns:xlink="http://www.w3.org/1999/xlink" width="300" zoomAndPan="magnify" viewBox="0 0 224.87999 112.499997" height="150" preserveAspectRatio="xMidYMid meet" version="1.2"><defs><clipPath id="fc4ca228fa"><path d="M 28.4375 0 L 196.441406 0 L 196.441406 112 L 28.4375 112 Z M 28.4375 0 "/></clipPath></defs><g id="14bfcff3b0"><g clip-rule="nonzero" clip-path="url(#fc4ca228fa)"><path style=" stroke:none;fill-rule:nonzero;fill:#ffffff;fill-opacity:1;" d="M 195.773438 0.09375 L 29.117188 0.09375 C 28.746094 0.09375 28.445312 0.398438 28.445312 0.769531 L 28.445312 58.5 C 28.835938 58.546875 29.285156 58.59375 29.789062 58.628906 L 29.789062 58.632812 C 31.710938 58.78125 34.4375 58.855469 37.972656 58.855469 C 40.191406 58.855469 42.730469 58.824219 45.585938 58.765625 C 48.214844 59.335938 49.816406 60.238281 50.394531 61.46875 C 51.136719 62.699219 51.398438 64.164062 51.175781 65.855469 C 48.1875 79.148438 46.898438 88.003906 47.308594 92.421875 C 48.085938 99.195312 51.4375 103.875 57.359375 106.46875 C 57.84375 106.523438 58.300781 106.546875 58.726562 106.546875 C 61.601562 106.546875 63.121094 105.332031 63.277344 102.894531 C 63.300781 101.40625 61.644531 93.957031 58.316406 80.550781 C 57.957031 75.699219 58.675781 72.269531 60.476562 70.257812 C 61.34375 69.183594 62.566406 68.566406 64.144531 68.40625 C 68.144531 70.5625 70.601562 71.640625 71.519531 71.640625 C 71.613281 71.640625 71.6875 71.628906 71.75 71.609375 C 78.84375 67.847656 83.460938 65.964844 85.59375 65.964844 C 86.222656 65.964844 86.636719 66.128906 86.832031 66.457031 C 87.867188 67.191406 88.441406 68.714844 88.550781 71.023438 C 86.648438 84.464844 86.300781 93.429688 87.507812 97.917969 C 89.882812 106.179688 94.332031 110.847656 100.867188 111.921875 C 101 111.929688 101.132812 111.933594 101.265625 111.933594 C 103.171875 111.933594 105.238281 111.066406 107.457031 109.328125 C 108.558594 108.230469 109.347656 106.425781 109.824219 103.90625 C 110.035156 102.1875 107.035156 95.574219 100.824219 84.066406 C 99.4375 80.429688 98.535156 76.9375 98.113281 73.59375 C 97.125 65.664062 99.007812 59.960938 103.761719 56.480469 C 103.851562 56.472656 103.9375 56.46875 104.023438 56.46875 C 104.601562 56.46875 105.101562 56.660156 105.511719 57.039062 C 106.097656 62.417969 107.722656 66.578125 110.382812 69.515625 C 112.007812 70.40625 113.035156 70.851562 113.46875 70.851562 C 113.605469 70.851562 113.683594 70.808594 113.703125 70.71875 C 115.003906 70.40625 117.109375 68.847656 120.015625 66.042969 C 120.507812 65.835938 120.960938 65.730469 121.378906 65.730469 C 121.695312 65.730469 121.988281 65.792969 122.265625 65.910156 C 124.816406 72.03125 126.691406 75.445312 127.890625 76.148438 C 129.527344 77.800781 131.359375 78.636719 133.386719 78.65625 C 135.164062 78.355469 136.15625 77.609375 136.371094 76.40625 C 136.429688 68.617188 137.042969 63.839844 138.207031 62.074219 C 140.890625 58.585938 143.292969 56.84375 145.417969 56.84375 C 146.230469 56.84375 147.003906 57.097656 147.734375 57.609375 C 148.632812 58.886719 148.90625 60.296875 148.554688 61.847656 C 143.195312 78 140.578125 88.785156 140.699219 94.199219 C 141.214844 101.382812 143.351562 106.015625 147.109375 108.101562 C 148.128906 108.515625 149.066406 108.722656 149.921875 108.722656 C 152.296875 108.722656 154.046875 107.128906 155.171875 103.949219 C 153.890625 94.917969 153.726562 84.890625 154.679688 73.863281 C 155.507812 68.359375 157.171875 64.84375 159.679688 63.320312 C 159.894531 63.261719 160.101562 63.234375 160.300781 63.234375 C 160.804688 63.234375 161.246094 63.421875 161.632812 63.800781 C 162.671875 67.4375 163.835938 69.863281 165.132812 71.074219 C 165.984375 71.785156 166.882812 72.140625 167.832031 72.140625 C 167.847656 72.140625 167.867188 72.140625 167.882812 72.140625 C 167.980469 72.1875 168.082031 72.210938 168.191406 72.210938 C 169.320312 72.210938 170.96875 69.617188 173.136719 64.4375 C 173.722656 63.894531 174.273438 63.625 174.789062 63.625 C 175.210938 63.625 175.613281 63.804688 175.988281 64.160156 C 176.328125 64.441406 176.566406 65.332031 176.707031 66.832031 C 174.96875 79.460938 174.464844 87.136719 175.199219 89.855469 C 176.613281 93.546875 177.890625 95.742188 179.03125 96.445312 C 179.59375 96.941406 180.203125 97.191406 180.859375 97.191406 C 181.839844 97.191406 182.925781 96.640625 184.117188 95.542969 C 185.144531 94.601562 185.746094 92.558594 185.921875 89.410156 C 184.675781 77.851562 184.070312 71.5 184.113281 70.359375 C 183.988281 67.539062 184.089844 65.773438 184.429688 65.058594 C 184.75 63.347656 188.304688 59.722656 195.097656 54.179688 L 195.101562 1.441406 L 195.101562 54.179688 C 195.535156 53.824219 195.980469 53.460938 196.441406 53.09375 L 196.445312 0.769531 C 196.445312 0.398438 196.144531 0.09375 195.773438 0.09375 Z M 195.773438 0.09375 "/></g></g></svg>