<svg xmlns="http://www.w3.org/2000/svg" xmlns:xlink="http://www.w3.org/1999/xlink" width="300" zoomAndPan="magnify" viewBox="0 0 224.87999 112.499997" height="150" preserveAspectRatio="xMidYMid meet" version="1.2"><defs><clipPath id="31124ad094"><path d="M 0.4375 33.226562 L 224.324219 33.226562 L 224.324219 112 L 0.4375 112 Z M 0.4375 33.226562 "/></clipPath></defs><g id="6cc814e970"><g clip-rule="nonzero" clip-path="url(#31124ad094)"><path style=" stroke:none;fill-rule:evenodd;fill:#ffffff;fill-opacity:1;" d="M 0.4375 47.601562 L 0.4375 111.988281 L 224.441406 111.988281 L 224.441406 44.050781 C 223.320312 44.6875 222.253906 45.214844 221.394531 45.441406 C 219.425781 45.953125 218.511719 44.875 217.378906 43.824219 C 216.246094 42.773438 214.902344 41.75 213.472656 41.859375 C 212.046875 41.964844 210.539062 43.203125 208.625 43.230469 C 206.710938 43.257812 204.394531 42.074219 203.078125 42.476562 C 201.757812 42.882812 201.433594 44.875 199.035156 45.171875 C 196.636719 45.46875 192.167969 44.066406 188.421875 43.664062 C 184.679688 43.257812 181.660156 43.851562 180.394531 43.367188 C 179.128906 42.882812 179.613281 41.320312 179.722656 40.132812 C 179.828125 38.949219 179.558594 38.140625 178.914062 36.980469 C 178.265625 35.824219 177.242188 34.316406 176.058594 33.910156 C 174.875 33.507812 173.527344 34.207031 172.152344 35.125 C 170.777344 36.039062 169.378906 37.171875 168.191406 36.929688 C 167.007812 36.6875 166.039062 35.070312 165.230469 34.933594 C 164.421875 34.800781 163.777344 36.148438 163.019531 36.714844 C 162.265625 37.277344 161.40625 37.0625 160.191406 36.605469 C 158.980469 36.148438 157.417969 35.449219 157.148438 35.933594 C 156.878906 36.417969 157.902344 38.085938 157.363281 38.894531 C 156.824219 39.703125 154.726562 39.648438 151.546875 40.160156 C 148.367188 40.671875 144.113281 41.75 140.933594 42.234375 C 137.753906 42.71875 135.652344 42.613281 133.308594 42.585938 C 130.964844 42.558594 128.378906 42.613281 126.226562 41.589844 C 124.070312 40.566406 122.347656 38.464844 121.242188 37.738281 C 120.136719 37.011719 119.652344 37.65625 118.710938 38.277344 C 117.765625 38.894531 116.367188 39.488281 114.914062 40.214844 C 113.457031 40.941406 111.949219 41.804688 110.546875 42.074219 C 109.148438 42.34375 107.855469 42.019531 106.425781 40.941406 C 105 39.863281 103.4375 38.035156 101.496094 37.011719 C 99.558594 35.988281 97.242188 35.769531 95.058594 36.5 C 92.878906 37.226562 90.832031 38.894531 89.269531 40.136719 C 87.707031 41.375 86.628906 42.183594 85.6875 42.34375 C 84.742188 42.503906 83.933594 42.019531 82.695312 41.402344 C 81.457031 40.78125 79.785156 40.027344 79.058594 40.566406 C 78.332031 41.105469 78.546875 42.9375 77.792969 43.636719 C 77.039062 44.335938 75.316406 43.90625 74.371094 43.851562 C 73.429688 43.796875 73.269531 44.121094 72.648438 44.28125 C 72.027344 44.445312 70.949219 44.445312 69.171875 43.527344 C 67.394531 42.613281 64.917969 40.78125 62.601562 40.890625 C 60.285156 40.996094 58.128906 43.042969 56.21875 44.175781 C 54.304688 45.308594 52.632812 45.523438 52.148438 44.769531 C 51.664062 44.015625 52.363281 42.289062 53.414062 40.753906 C 54.464844 39.21875 55.867188 37.871094 55.730469 37.765625 C 55.597656 37.65625 53.925781 38.789062 52.175781 39.8125 C 50.425781 40.835938 48.59375 41.75 48.054688 40.78125 C 47.515625 39.8125 48.269531 36.957031 48.351562 35.3125 C 48.433594 33.671875 47.839844 33.238281 47.21875 34.667969 C 46.601562 36.09375 45.953125 39.378906 44.527344 41.132812 C 43.097656 42.882812 40.890625 43.097656 38.546875 42.640625 C 36.203125 42.183594 33.722656 41.050781 32.890625 41.132812 C 32.054688 41.210938 32.863281 42.503906 33.804688 43.851562 C 34.75 45.199219 35.824219 46.601562 34.9375 47.109375 C 34.046875 47.621094 31.191406 47.246094 29.011719 45.816406 C 26.828125 44.390625 25.320312 41.914062 24.164062 41.023438 C 23.003906 40.132812 22.195312 40.835938 21.765625 41.75 C 21.332031 42.667969 21.28125 43.796875 20.257812 44.253906 C 19.234375 44.714844 17.238281 44.5 16.351562 44.523438 C 15.460938 44.550781 15.675781 44.820312 16.621094 45.441406 C 17.5625 46.0625 19.234375 47.03125 18.910156 47.488281 C 18.585938 47.945312 16.269531 47.894531 14.382812 47.730469 C 12.5 47.570312 11.042969 47.300781 10.722656 46.761719 C 10.398438 46.222656 11.207031 45.414062 12.578125 44.039062 C 13.210938 43.410156 13.960938 42.660156 14.660156 41.984375 C 12.808594 42.984375 9.96875 44.042969 7.757812 44.363281 C 5.332031 44.714844 3.664062 44.175781 2.371094 43.933594 C 1.441406 43.757812 0.707031 43.738281 0.4375 43.910156 L 0.4375 44.347656 C 0.785156 44.828125 1.851562 45.589844 2.03125 46.195312 C 2.191406 46.746094 1.621094 47.171875 0.4375 47.601562 Z M 0.4375 47.601562 "/></g></g></svg>